# xmcd
#
# Track frame offsets:
#	150
#	12062
#	31645
#	47018
#	61391
#	84316
#	98509
#	111071
#	126255
#	145222
#	162109
#	180654
#	195584
#	208567
#	223381
#	237402
#	253069
#	268496
#	282894
#	299678
#	311266
#	322865
#	336831
#	348102
#
# Disc length: 4787 seconds
#
# Revision: 3
# Processed by: cddbd v1.5.1PL0 Copyright (c) Steve Scherf et al.
# Submitted via: audiograbber 1.83.01
#
DISCID=5e12b118
DTITLE=Don Omar - Los Bandoleros
DYEAR=2005
DGENRE=Latin
TTITLE0=INTRO
TTITLE1=DONQUEO  
TTITLE2=ACELERA
TTITLE3=ME ARREPIENTO
TTITLE4=BANDOLEROS
TTITLE5=SEGUN TU
TTITLE6=DALE VAQUERO
TTITLE7=SOY TU BANDOLERO
TTITLE8=TE QUITAS O NOS MATAMOS 
TTITLE9=HOY NOS VAMOS CALLE
TTITLE10=PRESION
TTITLE11=LA FIERA
TTITLE12=DALE MAMI PEGATE 
TTITLE13=SI LA VEZ 
TTITLE14=CHULA
TTITLE15=QUIMICA 
TTITLE16=VAMO´ A DARLE
TTITLE17=SOMOS BANDOLEROS 
TTITLE18=SOY QUIEN TE PROVOCA
TTITLE19=ELLA BAILA SOLA 
TTITLE20=FUEGO, FUEGO
TTITLE21=EN EL CALLEJON 
TTITLE22=VOY A DARLE SIN MIEDO
TTITLE23=TU CUERPO ME PROVOCA
EXTD=
EXTT0=
EXTT1=
EXTT2=
EXTT3=
EXTT4=
EXTT5=
EXTT6=
EXTT7=
EXTT8=
EXTT9=
EXTT10=
EXTT11=
EXTT12=
EXTT13=
EXTT14=
EXTT15=
EXTT16=
EXTT17=
EXTT18=
EXTT19=
EXTT20=
EXTT21=
EXTT22=
EXTT23=
PLAYORDER=
